# xmcd
#
# Track frame offsets: 
#        150
#        13179
#        26150
#        38513
#        50989
#        62874
#        76181
#        88846
#        102148
#        115958
#        129146
#        143247
#        155682
#        168467
#        182194
#        196651
#        209768
#        224116
#        234574
#        248843
#        258203
#        272541
#        284966
#        299448
#        309555
#        321585
#        332060
#        344036
#
# Disc length: 4738 seconds
#
# Revision: 0
# Processed by: cddbd v1.5.2PL0 Copyright (c) Steve Scherf et al.
# Submitted via: ExactAudioCopyFreeDBPlugin 1.0
#
DISCID=c112801c
DTITLE=J.B. Lenoir - I Wanna Play A Little While
DYEAR=2014
DGENRE=Blues
TTITLE0=Korea Blues
TTITLE1=My Baby Told Me
TTITLE2=Carrie Lee
TTITLE3=Deep In Debt Blues
TTITLE4=Let's Roll
TTITLE5=People Are Meddling (In Our Affairs)
TTITLE6=The Mountain
TTITLE7=How Much More
TTITLE8=How Can I Leave
TTITLE9=The Mojo
TTITLE10=I'll Die Tryin'
TTITLE11=I Want My Baby
TTITLE12=I Wanna Play A Little While
TTITLE13=Louise
TTITLE14=I'm In Korea
TTITLE15=Eisenhower Blues
TTITLE16=Tax Paying Blues
TTITLE17=Mama Talk To Your Daughter
TTITLE18=Man Watch Your Woman
TTITLE19=Mama Your Daughter's Going To Miss Me
TTITLE20=What Have I Done
TTITLE21=Fine Girls
TTITLE22=I Lost My Baby
TTITLE23=Let Me Die With The One I Love
TTITLE24=If I Give My Love To You
TTITLE25=Don't Touch My Head
TTITLE26=I've Been Down For So Long
TTITLE27=Mama What About Your Daughter
EXTD=
EXTT0=
EXTT1=
EXTT2=
EXTT3=
EXTT4=
EXTT5=
EXTT6=
EXTT7=
EXTT8=
EXTT9=
EXTT10=
EXTT11=
EXTT12=
EXTT13=
EXTT14=
EXTT15=
EXTT16=
EXTT17=
EXTT18=
EXTT19=
EXTT20=
EXTT21=
EXTT22=
EXTT23=
EXTT24=
EXTT25=
EXTT26=
EXTT27=
PLAYORDER=
